<svg xmlns="http://www.w3.org/2000/svg" width="334.807" height="64.088" viewBox="0 0 334.807 64.088">
  <g id="Group_10" data-name="Group 10" transform="translate(-5314.193 -2717.915)">
    <g id="Group_622" data-name="Group 622" transform="translate(5314.193 2717.915)">
      <path id="Path_7078" data-name="Path 7078" d="M661.155,37.316a32.028,32.028,0,1,1-23.216,30.789c0-.764.028-1.52.078-2.272l31.946,2.272Z" transform="translate(-637.939 -36.085)" fill="#034871" fill-rule="evenodd"/>
      <path id="Path_7079" data-name="Path 7079" d="M661.579,51.626l6.853,20.391A21.881,21.881,0,0,1,652,70.888a21.574,21.574,0,0,1-11.477-23.67,32.79,32.79,0,0,1,16.189-10.738Z" transform="translate(-633.441 -35.244)" fill="#948067" fill-rule="evenodd"/>
      <path id="Path_7080" data-name="Path 7080" d="M675.121,45.589c-3.045.88-4.945,2.5-5.444,5.3a7.317,7.317,0,0,0,1.61,4.643,15.622,15.622,0,0,1,2.132,12.929c-2.825,7.928-7.882,10.812-13.64,12.086l.071,12.438a31.921,31.921,0,0,1-17.337-6.6,15.289,15.289,0,0,1-.812-4.838,3.488,3.488,0,0,1,3.31-3.7h11.642l.285-20.938c.485-5.9,1.613-11.185,4.413-14.458a7.966,7.966,0,0,1,5.8-2.962c4.077-.364,6.89,1.408,7.975,6.1" transform="translate(-630.029 -29.012)" fill="#fff" fill-rule="evenodd"/>
      <path id="Path_7081" data-name="Path 7081" d="M675.121,45.588c-3.045.88-4.945,2.5-5.444,5.3a7.317,7.317,0,0,0,1.61,4.643,15.622,15.622,0,0,1,2.132,12.929c-2.825,7.928-7.882,10.812-13.64,12.086l.071,12.438a31.921,31.921,0,0,1-17.337-6.6,15.289,15.289,0,0,1-.812-4.838,3.488,3.488,0,0,1,3.31-3.7h11.642l.285-20.938c.485-5.9,1.613-11.185,4.413-14.458a7.966,7.966,0,0,1,5.8-2.962C671.224,39.124,674.036,40.9,675.121,45.588Z" transform="translate(-630.029 -29.011)" fill="none" stroke="#fff" stroke-miterlimit="10" stroke-width="0.216"/>
      <path id="Path_7082" data-name="Path 7082" d="M651.156,40.42a1.039,1.039,0,1,1-1.039,1.039,1.032,1.032,0,0,1,1.039-1.039" transform="translate(-612.261 -26.944)" fill="#948067" fill-rule="evenodd"/>
      <path id="Path_7083" data-name="Path 7083" d="M654.963,50.21c-.923,5.672-4.146,9.342-8.463,12.111l.183-15.514Z" transform="translate(-619.885 -13.482)" fill="#84c81b" fill-rule="evenodd"/>
      <path id="Path_7084" data-name="Path 7084" d="M657.771,50.606l15.213,15.219a21.883,21.883,0,0,1-15.213,6.3A21.559,21.559,0,0,1,637.965,59a31.888,31.888,0,0,1,8.54-19.638Z" transform="translate(-637.887 -29.168)" fill="#fff" fill-rule="evenodd"/>
    </g>
    <text id="Bangunarta" transform="translate(5526 2764)" fill="#4a4a4a" font-size="40" font-family="Poppins-SemiBold, Poppins" font-weight="600"><tspan x="-122.6" y="0">Bangunarta</tspan></text>
  </g>
</svg>
